<?xml version="1.0" encoding="UTF-8" standalone="no"?>
<svg
   height="512px"
   version="1.1"
   viewBox="0 0 512 512"
   width="512px"
   xml:space="preserve"
   id="svg433"
   sodipodi:docname="pyodoo.svg"
   inkscape:version="1.2.1 (9c6d41e410, 2022-07-14, custom)"
   xmlns:inkscape="http://www.inkscape.org/namespaces/inkscape"
   xmlns:sodipodi="http://sodipodi.sourceforge.net/DTD/sodipodi-0.dtd"
   xmlns="http://www.w3.org/2000/svg"
   xmlns:svg="http://www.w3.org/2000/svg"><defs
     id="defs437" /><sodipodi:namedview
     id="namedview435"
     pagecolor="#ffffff"
     bordercolor="#666666"
     borderopacity="1.0"
     inkscape:showpageshadow="2"
     inkscape:pageopacity="0.0"
     inkscape:pagecheckerboard="0"
     inkscape:deskcolor="#d1d1d1"
     showgrid="false"
     inkscape:zoom="1.158716"
     inkscape:cx="267.53752"
     inkscape:cy="260.63332"
     inkscape:window-width="1920"
     inkscape:window-height="1011"
     inkscape:window-x="0"
     inkscape:window-y="32"
     inkscape:window-maximized="1"
     inkscape:current-layer="g430" /><g
     id="Layer_4"
     transform="matrix(1.1014737,0,0,1.1014737,-14.707723,-17.171725)" /><g
     id="g430"><path
       d="m 53.026103,248.16348 c 0,-18.55322 -5.290378,-28.07987 -15.870033,-28.60087 -4.210934,-0.19826 -8.323836,0.47143 -12.322186,2.02451 -3.190969,1.14333 -5.339944,2.27345 -6.470057,3.41567 v 44.28805 c 6.768556,4.24619 12.779299,6.22334 18.021212,5.91162 11.089637,-0.73469 16.641064,-9.73813 16.641064,-27.03898 z m 13.053565,0.76993 c 0,9.42751 -2.210658,17.25128 -6.656206,23.4735 -4.955529,7.04393 -11.823218,10.66888 -20.604166,10.86824 -6.619857,0.21039 -13.436878,-1.86259 -20.454367,-6.21341 V 317.3151 L 7.013141,313.26609 v -89.34495 c 1.862593,-2.28446 4.260501,-4.24618 7.166188,-5.9105 6.756439,-3.93667 14.965723,-5.96118 24.62675,-6.06031 l 0.160814,0.16082 c 8.831617,-0.11126 15.636521,3.51369 20.418018,10.86713 4.459867,6.74322 6.694757,15.38649 6.694757,25.95513 z"
       id="path46"
       style="stroke-width:1.10148" /><path
       d="m 135.45379,275.35226 c 0,12.6416 -1.2645,21.39723 -3.79899,26.26794 -2.54661,4.86631 -7.38979,8.75341 -14.54496,11.64698 -5.80036,2.28446 -12.06995,3.52802 -18.801052,3.7373 l -1.874707,-7.15077 c 6.843459,-0.93184 11.659099,-1.86259 14.454629,-2.79664 5.50297,-1.86038 9.27882,-4.71761 11.35069,-8.54523 1.66763,-3.11497 2.48713,-9.06512 2.48713,-17.8692 v -2.95856 c -7.76429,3.52802 -15.89647,5.27936 -24.40535,5.27936 -5.588882,0 -10.519074,-1.75134 -14.767457,-5.27936 -4.767178,-3.83754 -7.150767,-8.70605 -7.150767,-14.60334 v -47.24441 l 11.350681,-3.88711 v 47.55283 c 0,5.0789 1.638998,8.99023 4.916982,11.7351 3.280186,2.74487 7.527471,4.06333 12.730831,3.96311 5.20336,-0.11456 10.78012,-2.12365 16.70496,-6.06251 v -55.47573 h 11.35067 v 61.69024 z"
       id="path48"
       style="stroke-width:1.10148" /><g
       id="g12"
       transform="matrix(0.57527752,0,0,0.57527752,143.54446,174.65572)"><path
         class="st0"
         d="m 84.2,55.7 c 10.1,0 19.7,2 28.7,6 9,4 16.9,9.5 23.7,16.3 6.8,6.8 12.2,14.8 16.3,23.9 4,9.1 6,18.8 6,29.1 0,10.3 -2,20 -5.9,29 -3.9,9 -9.3,16.9 -16,23.7 -6.7,6.8 -14.6,12.2 -23.7,16.1 -9.1,3.9 -18.9,5.9 -29.5,5.9 -10.3,0 -20.1,-1.9 -29.1,-5.6 -9.1,-3.7 -17.1,-8.9 -23.9,-15.7 -6.8,-6.7 -12.2,-14.6 -16.1,-23.7 -3.9,-9.1 -5.9,-19 -5.9,-29.8 0,-10.3 1.9,-20 5.7,-29 3.8,-9 9.1,-16.8 16,-23.6 6.8,-6.7 14.8,-12.1 24,-16.1 9.3,-3.8 19.2,-6.1 29.7,-6.5 z m -0.3,30.7 c -6,0 -11.7,1.1 -17.2,3.4 -5.5,2.3 -10.2,5.4 -14.3,9.5 -4,4 -7.2,8.7 -9.6,14.1 -2.4,5.4 -3.6,11.3 -3.6,17.7 0,6 1.2,11.7 3.6,17.2 2.4,5.5 5.6,10.3 9.6,14.4 4,4.1 8.8,7.4 14.3,9.8 5.5,2.4 11.2,3.6 17.2,3.6 6,0 11.7,-1.2 17.2,-3.6 5.5,-2.4 10.2,-5.6 14.3,-9.8 4,-4.1 7.2,-8.9 9.6,-14.4 2.4,-5.5 3.6,-11.2 3.6,-17.2 -0.6,-12.2 -5,-22.5 -13,-30.9 -8.1,-8.4 -18.5,-13 -31.3,-13.8 z"
         id="path4"
         style="fill:#a24689" /><path
         class="st1"
         d="m 300,8 c 3.5,-0.2 6.8,1.2 9.9,4.2 3.1,3 4.6,6.3 4.6,9.8 v 108.8 c 0,10.1 -2.1,19.7 -6.2,28.8 -4.1,9.1 -9.7,17.1 -16.7,23.9 -7,6.8 -15,12.2 -24,16.3 -9,4 -18.5,6 -28.4,6 -10.1,0 -19.7,-2 -28.8,-5.9 -9.1,-3.9 -17.1,-9.3 -23.9,-16.1 -6.8,-6.8 -12.2,-14.8 -16.3,-23.9 -4,-9.1 -6,-18.8 -6,-29.1 0,-11.2 1.8,-21 5.4,-29.5 3.6,-8.5 9,-16.4 16.3,-23.9 v 0.3 c 7.6,-7.2 16.1,-12.7 25.3,-16.4 9.2,-3.7 18.7,-5.6 28.4,-5.6 5.8,0 12.7,0.9 20.6,2.8 8,1.9 15.9,5.5 23.7,10.9 V 23.5 c 0,-2.1 0.4,-4 1.2,-5.9 0.8,-1.9 1.9,-3.6 3.3,-5.1 1.3,-1.6 2.9,-2.7 4.8,-3.6 1.9,-0.8 3.7,-1.1 5.6,-0.9 z m -16.1,122.8 c 0,-5.6 -1.2,-11.1 -3.6,-16.4 -2.4,-5.4 -5.6,-10.2 -9.8,-14.4 -4.1,-4.2 -8.9,-7.6 -14.3,-10.1 -5.4,-2.5 -11.1,-3.7 -17.1,-3.7 -6,0 -11.7,1.2 -17.2,3.6 -5.5,2.4 -10.2,5.6 -14.3,9.6 -4,4 -7.2,8.8 -9.6,14.3 -2.4,5.5 -3.6,11.2 -3.6,17.2 0,6.2 1.2,12 3.6,17.4 2.4,5.4 5.6,10.1 9.6,14.1 4,4 8.8,7.2 14.3,9.6 5.5,2.4 11.2,3.6 17.2,3.6 6,0 11.7,-1.2 17.1,-3.6 5.4,-2.4 10.1,-5.6 14.3,-9.6 4.1,-4 7.4,-8.7 9.8,-14.1 2.4,-5.5 3.6,-11.3 3.6,-17.5 z"
         id="path6"
         style="fill:#8f8f8f" /><path
         class="st1"
         d="m 398.6,55.7 c 10.1,0 19.7,2 28.7,6 9,4 16.9,9.5 23.7,16.3 6.8,6.8 12.2,14.8 16.3,23.9 4,9.1 6,18.8 6,29.1 0,10.3 -2,20 -5.9,29 -3.9,9 -9.3,16.9 -16,23.7 -6.7,6.8 -14.6,12.2 -23.7,16.1 -9.1,3.9 -18.9,5.9 -29.5,5.9 -10.3,0 -20.1,-1.9 -29.1,-5.6 -9.1,-3.7 -17.1,-8.9 -23.9,-15.7 -6.8,-6.7 -12.2,-14.6 -16.1,-23.7 -3.9,-9.1 -5.9,-19 -5.9,-29.8 0,-10.3 1.9,-20 5.7,-29 3.8,-9 9.1,-16.8 16,-23.6 6.8,-6.7 14.8,-12.1 24,-16.1 9.3,-3.8 19.2,-6.1 29.7,-6.5 z m -0.3,30.7 c -6,0 -11.7,1.1 -17.2,3.4 -5.5,2.3 -10.2,5.4 -14.3,9.5 -4,4 -7.2,8.7 -9.6,14.1 -2.4,5.4 -3.6,11.3 -3.6,17.7 0,6 1.2,11.7 3.6,17.2 2.4,5.5 5.6,10.3 9.6,14.4 4,4.1 8.8,7.4 14.3,9.8 5.5,2.4 11.2,3.6 17.2,3.6 6,0 11.7,-1.2 17.2,-3.6 5.5,-2.4 10.2,-5.6 14.3,-9.8 4,-4.1 7.2,-8.9 9.6,-14.4 2.4,-5.5 3.6,-11.2 3.6,-17.2 -0.6,-12.2 -5,-22.5 -13,-30.9 -8.1,-8.4 -18.5,-13 -31.3,-13.8 z"
         id="path8"
         style="fill:#8f8f8f" /><path
         class="st1"
         d="m 556.1,55.7 c 10.1,0 19.7,2 28.7,6 9,4 16.9,9.5 23.7,16.3 6.8,6.8 12.2,14.8 16.3,23.9 4,9.1 6,18.8 6,29.1 0,10.3 -2,20 -5.9,29 -3.9,9 -9.3,16.9 -16,23.7 -6.7,6.8 -14.6,12.2 -23.7,16.1 -9.1,3.9 -18.9,5.9 -29.5,5.9 -10.3,0 -20.1,-1.9 -29.1,-5.6 -9.1,-3.7 -17.1,-8.9 -23.9,-15.7 -6.8,-6.7 -12.2,-14.6 -16.1,-23.7 -3.9,-9.1 -5.9,-19 -5.9,-29.8 0,-10.3 1.9,-20 5.7,-29 3.8,-9 9.1,-16.8 16,-23.6 6.8,-6.7 14.8,-12.1 24,-16.1 9.3,-3.8 19.2,-6.1 29.7,-6.5 z m -0.3,30.7 c -6,0 -11.7,1.1 -17.2,3.4 -5.5,2.3 -10.2,5.4 -14.3,9.5 -4,4 -7.2,8.7 -9.6,14.1 -2.4,5.4 -3.6,11.3 -3.6,17.7 0,6 1.2,11.7 3.6,17.2 2.4,5.5 5.6,10.3 9.6,14.4 4,4.1 8.8,7.4 14.3,9.8 5.5,2.4 11.2,3.6 17.2,3.6 6,0 11.7,-1.2 17.2,-3.6 5.5,-2.4 10.2,-5.6 14.3,-9.8 4,-4.1 7.2,-8.9 9.6,-14.4 2.4,-5.5 3.6,-11.2 3.6,-17.2 -0.6,-12.2 -5,-22.5 -13,-30.9 -8.1,-8.4 -18.5,-13 -31.3,-13.8 z"
         id="path10"
         style="fill:#8f8f8f" /></g></g></svg>
